<svg xmlns="http://www.w3.org/2000/svg" width="49.5" height="49.5" viewBox="0 0 49.5 49.5">
  <g id="Icon_ionic-logo-instagram" data-name="Icon ionic-logo-instagram" transform="translate(-4.5 -4.5)">
    <path id="Path_1" data-name="Path 1" d="M39.563,49.875A10.343,10.343,0,0,0,49.875,39.563V18.938A10.343,10.343,0,0,0,39.563,8.625H18.938A10.343,10.343,0,0,0,8.625,18.938V39.563A10.343,10.343,0,0,0,18.938,49.875H39.563m0,4.125H18.938A14.48,14.48,0,0,1,4.5,39.563V18.938A14.48,14.48,0,0,1,18.938,4.5H39.563A14.48,14.48,0,0,1,54,18.938V39.563A14.48,14.48,0,0,1,39.563,54Z" transform="translate(0 0)" fill="#014040"/>
    <path id="Path_2" data-name="Path 2" d="M26.719,9a3.094,3.094,0,1,0,3.094,3.094A3.086,3.086,0,0,0,26.719,9Z" transform="translate(15.937 30.563)" fill="#014040"/>
    <path id="Path_3" data-name="Path 3" d="M23.625,31.875a8.25,8.25,0,1,0-8.25-8.25,8.258,8.258,0,0,0,8.25,8.25m0,4.125A12.375,12.375,0,1,1,36,23.625,12.378,12.378,0,0,1,23.625,36Z" transform="translate(5.625 5.625)" fill="#014040"/>
  </g>
</svg>
