<svg xmlns="http://www.w3.org/2000/svg" width="44.533" height="44.533" viewBox="0 0 44.533 44.533">
  <path id="Icon_simple-linkedin" data-name="Icon simple-linkedin" d="M37.94,37.95H31.346V27.616c0-2.464-.05-5.635-3.436-5.635-3.438,0-3.963,2.681-3.963,5.453V37.95H17.351V16.7h6.335v2.9h.085a6.95,6.95,0,0,1,6.253-3.433c6.682,0,7.918,4.4,7.918,10.122V37.95ZM9.9,13.792a3.83,3.83,0,1,1,3.83-3.832A3.826,3.826,0,0,1,9.9,13.792ZM13.21,37.95H6.6V16.7H13.21ZM41.239,0H3.286A3.247,3.247,0,0,0,0,3.208V41.325a3.246,3.246,0,0,0,3.286,3.208H41.234a3.258,3.258,0,0,0,3.3-3.208V3.208A3.259,3.259,0,0,0,41.234,0Z" fill="#014040"/>
</svg>
